<mxfile host="app.diagrams.net" modified="2024-02-29T02:47:22.179Z" agent="Mozilla/5.0 (Macintosh; Intel Mac OS X 10_15_7) AppleWebKit/537.36 (KHTML, like Gecko) Chrome/122.0.0.0 Safari/537.36" version="23.1.6" etag="8HFlL4BfVtF8CR2M7TeH" type="github">
  <diagram name="第 1 页" id="y5avJ8O55IWnVHuXGaOw">
    <mxGraphModel>
      <root>
        <mxCell id="0" />
        <mxCell id="1" parent="0" />
      </root>
    </mxGraphModel>
  </diagram>
</mxfile>
